<svg width="32" height="32" viewBox="0 0 32 32" fill="none" xmlns="http://www.w3.org/2000/svg">
<path fill-rule="evenodd" clip-rule="evenodd" d="M1 9C1 7.89543 1.89543 7 3 7H29C30.1046 7 31 7.89543 31 9V23C31 24.1046 30.1046 25 29 25H3C1.89543 25 1 24.1046 1 23V9ZM29 9H3V23H29V9Z" fill="#574F4D"/>
<path fill-rule="evenodd" clip-rule="evenodd" d="M16 13C14.3431 13 13 14.3431 13 16C13 17.6569 14.3431 19 16 19C17.6569 19 19 17.6569 19 16C19 14.3431 17.6569 13 16 13ZM11 16C11 13.2386 13.2386 11 16 11C18.7614 11 21 13.2386 21 16C21 18.7614 18.7614 21 16 21C13.2386 21 11 18.7614 11 16Z" fill="#574F4D"/>
<path fill-rule="evenodd" clip-rule="evenodd" d="M21.2474 7.34151C21.6111 6.92587 22.2429 6.88375 22.6585 7.24744L30.6585 14.2474C31.0742 14.6111 31.1163 15.2429 30.7526 15.6585C30.3889 16.0742 29.7571 16.1163 29.3415 15.7526L21.3415 8.75259C20.9259 8.38891 20.8838 7.75715 21.2474 7.34151Z" fill="#574F4D"/>
<path fill-rule="evenodd" clip-rule="evenodd" d="M30.7526 16.3415C31.1163 16.7571 31.0742 17.3889 30.6585 17.7526L22.6585 24.7526C22.2429 25.1163 21.6111 25.0742 21.2474 24.6585C20.8838 24.2429 20.9259 23.6111 21.3415 23.2474L29.3415 16.2474C29.7571 15.8838 30.3889 15.9259 30.7526 16.3415Z" fill="#574F4D"/>
<path fill-rule="evenodd" clip-rule="evenodd" d="M10.7526 7.34151C11.1163 7.75715 11.0742 8.38891 10.6585 8.75259L2.65852 15.7526C2.24288 16.1163 1.61112 16.0742 1.24744 15.6585C0.883755 15.2429 0.925872 14.6111 1.34151 14.2474L9.34151 7.24744C9.75714 6.88375 10.3889 6.92587 10.7526 7.34151Z" fill="#574F4D"/>
<path fill-rule="evenodd" clip-rule="evenodd" d="M1.24744 16.3415C1.61112 15.9259 2.24288 15.8838 2.65852 16.2474L10.6585 23.2474C11.0742 23.6111 11.1163 24.2429 10.7526 24.6585C10.3889 25.0742 9.75714 25.1163 9.34151 24.7526L1.34151 17.7526C0.925872 17.3889 0.883755 16.7571 1.24744 16.3415Z" fill="#574F4D"/>
</svg>
