<svg width="32" height="32" viewBox="0 0 32 32" fill="none" xmlns="http://www.w3.org/2000/svg">
<path d="M28.7375 8.84995C28.7342 8.84995 28.731 8.84863 28.7287 8.84628C28.7263 8.84394 28.725 8.84076 28.725 8.83745C28.5443 8.52984 28.2856 8.27542 27.975 8.09995L16.975 1.91245C16.677 1.74605 16.3413 1.65869 16 1.65869C15.6587 1.65869 15.323 1.74605 15.025 1.91245L4.02501 8.09995C3.71441 8.27542 3.45568 8.52984 3.27501 8.83745C3.27501 8.84076 3.27369 8.84394 3.27135 8.84628C3.269 8.84863 3.26582 8.84995 3.26251 8.84995V8.87495C3.08969 9.16619 2.99898 9.49879 3.00001 9.83745V22.1624C3.00064 22.5188 3.09587 22.8685 3.27595 23.176C3.45604 23.4835 3.71453 23.7376 4.02501 23.9124L15.025 30.0999C15.3019 30.251 15.6098 30.3365 15.925 30.3499H16.1C16.4072 30.3363 16.707 30.2507 16.975 30.0999L27.975 23.9124C28.2855 23.7376 28.544 23.4835 28.7241 23.176C28.9042 22.8685 28.9994 22.5188 29 22.1624V9.83745C29.0018 9.4908 28.9112 9.14993 28.7375 8.84995ZM16 3.64995L25.9625 9.24995L22.1375 11.4249L12.05 5.86245L16 3.64995ZM16.1125 14.8499L6.05001 9.24995L10 7.02495L20.1 12.5874L16.1125 14.8499ZM17.0125 27.7874L17.1125 16.5874L21.125 14.2999V19.0624C21.125 19.3277 21.2304 19.582 21.4179 19.7696C21.6054 19.9571 21.8598 20.0624 22.125 20.0624C22.3902 20.0624 22.6446 19.9571 22.8321 19.7696C23.0197 19.582 23.125 19.3277 23.125 19.0624V13.1624L27 10.9624V22.1624L17.0125 27.7874Z" fill="#574F4D"/>
</svg>
