<svg width="32" height="32" viewBox="0 0 32 32" fill="none" xmlns="http://www.w3.org/2000/svg">
<path d="M27.9875 8.175L26.4625 16.5375C26.3367 17.2283 25.9726 17.8531 25.4335 18.3031C24.8945 18.753 24.2147 18.9997 23.5125 19H9.0125L9.5625 22H23C23.5933 22 24.1734 22.1759 24.6667 22.5056C25.1601 22.8352 25.5446 23.3038 25.7716 23.8519C25.9987 24.4001 26.0581 25.0033 25.9424 25.5853C25.8266 26.1672 25.5409 26.7018 25.1213 27.1213C24.7018 27.5409 24.1672 27.8266 23.5853 27.9424C23.0033 28.0581 22.4001 27.9987 21.852 27.7716C21.3038 27.5446 20.8352 27.1601 20.5056 26.6667C20.1759 26.1734 20 25.5933 20 25C20.0001 24.6591 20.0593 24.3207 20.175 24H12.825C12.9407 24.3207 12.9999 24.6591 13 25C13.0009 25.484 12.8847 25.9611 12.6612 26.3905C12.4378 26.8198 12.1138 27.1888 11.7169 27.4658C11.3199 27.7428 10.8619 27.9196 10.3818 27.9812C9.90167 28.0428 9.4138 27.9873 8.9598 27.8195C8.5058 27.6517 8.09915 27.3765 7.77456 27.0174C7.44996 26.6583 7.21707 26.2261 7.09576 25.7575C6.97445 25.2889 6.96831 24.7979 7.07789 24.3265C7.18746 23.855 7.40948 23.4171 7.725 23.05L4.2625 4H2C1.73478 4 1.48043 3.89464 1.29289 3.70711C1.10536 3.51957 1 3.26522 1 3C1 2.73478 1.10536 2.48043 1.29289 2.29289C1.48043 2.10536 1.73478 2 2 2H4.2625C4.7293 2.00102 5.18104 2.16529 5.53946 2.46435C5.89787 2.76342 6.14039 3.17843 6.225 3.6375L6.8375 7H27C27.146 7.0003 27.2901 7.03297 27.4219 7.09565C27.5538 7.15834 27.6701 7.24947 27.7625 7.3625C27.8592 7.47198 27.9297 7.60203 27.9687 7.7428C28.0077 7.88358 28.0141 8.03137 27.9875 8.175Z" fill="#574F4D"/>
</svg>
