<svg width="32" height="32" viewBox="0 0 32 32" fill="none" xmlns="http://www.w3.org/2000/svg">
<path d="M13 2H19C19.2652 2 19.5196 1.89464 19.7071 1.70711C19.8946 1.51957 20 1.26522 20 1C20 0.734784 19.8946 0.48043 19.7071 0.292893C19.5196 0.105357 19.2652 0 19 0L13 0C12.7348 0 12.4804 0.105357 12.2929 0.292893C12.1054 0.48043 12 0.734784 12 1C12 1.26522 12.1054 1.51957 12.2929 1.70711C12.4804 1.89464 12.7348 2 13 2Z" fill="#574F4D"/>
<path d="M16 4C13.6266 4 11.3066 4.70379 9.33316 6.02236C7.35977 7.34094 5.8217 9.21509 4.91345 11.4078C4.0052 13.6005 3.76756 16.0133 4.23058 18.3411C4.6936 20.6689 5.83649 22.8071 7.51472 24.4853C9.19295 26.1635 11.3311 27.3064 13.6589 27.7694C15.9867 28.2324 18.3995 27.9948 20.5922 27.0866C22.7849 26.1783 24.6591 24.6402 25.9776 22.6668C27.2962 20.6935 28 18.3734 28 16C27.9934 12.8194 26.727 9.77102 24.478 7.52202C22.229 5.27301 19.1806 4.00661 16 4ZM21.6625 11.7625L16.7125 16.7125C16.5214 16.8973 16.2659 17.0006 16 17.0006C15.7341 17.0006 15.4786 16.8973 15.2875 16.7125C15.0997 16.5229 14.9944 16.2668 14.9944 16C14.9944 15.7332 15.0997 15.4771 15.2875 15.2875L20.2375 10.3375C20.3272 10.2283 20.4387 10.139 20.5649 10.0754C20.6912 10.0119 20.8293 9.9755 20.9705 9.96856C21.1117 9.96163 21.2527 9.98433 21.3846 10.0352C21.5164 10.0861 21.6362 10.164 21.7361 10.2639C21.836 10.3638 21.9139 10.4836 21.9648 10.6154C22.0157 10.7473 22.0384 10.8884 22.0314 11.0295C22.0245 11.1707 21.9881 11.3088 21.9246 11.4351C21.861 11.5613 21.7718 11.6728 21.6625 11.7625Z" fill="#574F4D"/>
</svg>
